<svg xmlns="http://www.w3.org/2000/svg" viewBox="0 0 420.75 447.39"><defs><style>.cls-1{fill:#cb8e0c;}.cls-1,.cls-2,.cls-5,.cls-6,.cls-7{stroke:#000;stroke-miterlimit:10;stroke-width:3px;}.cls-2{fill:#6d451f;}.cls-3{fill:#cbc5b9;}.cls-4{fill:#a7a193;}.cls-5{fill:#f0b61a;}.cls-6{fill:#38a052;}.cls-7{fill:#4472b1;}</style></defs><g id="图层_1" data-name="图层 1"><path d="M204.76,257.06c-37.9,2.6-69.45-9.68-93.77-38.54-18.9-22.44-27.1-48.8-24.37-77.9A107.43,107.43,0,0,1,204.38,43.25C264.12,49.15,313,106,298.11,175.53c4.82-.68,9.47-1.38,14.12-2,56.52-7.35,113.24,25.13,135.8,77.76C480.82,327.78,437.2,413.87,355.79,432,314,441.24,276.26,431,243,404.14c-1.92-1.55-3.51-3.74-5.68-4.71-3.25-1.47-7.22-3.57-10.26-2.82-7.58,1.85-15.51,4.79-19.54,11.95-7.15,12.71-17.22,21.5-30,28.5-28.39,15.62-56.26,32.2-84.34,48.38-15.22,8.76-28.94,5.1-37.7-10-4.4-7.62-8.83-15.22-13.17-22.87-7.87-13.85-4.24-27.83,9.43-35.75,32.46-18.81,65-37.44,97.41-56.36,8.27-4.82,17.3-4.15,26.13-4.65s15.47-5.21,21.25-10.8c2.37-2.29,3.12-7.31,2.93-11-.54-10.91-2.42-21.76-2.83-32.66-.52-13.7,2.52-27,6.75-40C203.84,260.06,204.22,258.78,204.76,257.06Zm65.13-4.78c-3.71-8.54-6.61-16-10.12-23.07-2.36-4.8-1.51-8.05,2.18-11.85,21.39-22.08,30.53-48.57,26.74-79.11-6.63-53.5-55.93-91-109-83.24A96.13,96.13,0,0,0,99.06,166.74c10.25,59.54,73.09,95,129.39,72.73,5.2-2.05,9.41-2.2,14.39.34C251.27,244.11,260,247.78,269.89,252.28Zm-15.58,5.36c-11,18.31-15.1,37.43-12.36,58.09,6.27,47.16,50.54,80.8,97.6,74A87,87,0,0,0,411.92,283c-14.13-58.31-83.7-84.86-133.11-50.86-3.05,2.1-4,3.76-2.23,7.35,3.3,6.61,6,13.51,9,20.27,1.27,2.87,2.1,6.19-.89,7.9a9.87,9.87,0,0,1-7.59.31C269.55,264.92,262.24,261.27,254.31,257.64ZM207.62,393c1.45-.8,2.52-1.37,3.56-2,16.25-9.29,24-8.33,38.39,3.82,28.47,24,61.33,33.33,98,27.32,68-11.15,112.16-77.55,97-145.1-14.66-65.33-82.29-106.49-146.95-89.3-2,.53-4,2.56-5.13,4.41-5.07,8.08-9.84,16.34-14.73,24.53-.63,1.06-1.34,2.06-2.51,3.85,51.54-30.15,106.14-9.61,131.12,24.72,27.38,37.63,25.52,89.14-5,123.2-31.66,35.31-82.28,43.7-122.75,20.22-19.82-11.5-34.05-28-42.19-49.39-11.33-29.81-8.25-58.63,7.14-86.23-4.73-3.2-9.21-4.71-14.39-1.68a17.52,17.52,0,0,1-6.6,2c-3.6.45-5.11,2.64-6.3,5.72a123.46,123.46,0,0,0-5.7,71.4c2.56,12.26-2,21.74-12.71,28.19-2.46,1.47-4.91,3-7.47,4.52Zm-30-26.54-.44,1.15c-4.17,0-8.38-.37-12.49.11a27.15,27.15,0,0,0-10.05,2.86Q106,398.34,57.62,426.5c-8.17,4.73-10.12,12.16-5.43,20.47,4.17,7.39,8.47,14.71,12.72,22.06,6.2,10.75,12.55,12.45,23.3,6.24,28.86-16.68,57.52-33.71,86.7-49.82A53.61,53.61,0,0,0,197.3,403a5.48,5.48,0,0,0,.24-4.47c-5.45-9.85-11.1-19.59-16.81-29.3C180.06,368.09,178.71,367.36,177.67,366.44Z" transform="translate(-38.25 -42.73)"/><path class="cls-1" d="M207.62,393,190.4,363.24c2.56-1.55,5-3.05,7.47-4.52,10.75-6.45,15.27-15.93,12.71-28.19a123.46,123.46,0,0,1,5.7-71.4c1.19-3.08,2.7-5.27,6.3-5.72a17.52,17.52,0,0,0,6.6-2c5.18-3,9.66-1.52,14.39,1.68-15.39,27.6-18.47,56.42-7.14,86.23,8.14,21.42,22.37,37.89,42.19,49.39,40.47,23.48,91.09,15.09,122.75-20.22,30.53-34.06,32.39-85.57,5-123.2-25-34.33-79.58-54.87-131.12-24.72,1.17-1.79,1.88-2.79,2.51-3.85,4.89-8.19,9.66-16.45,14.73-24.53,1.16-1.85,3.15-3.88,5.13-4.41,64.66-17.19,132.29,24,147,89.3,15.16,67.55-29,134-97,145.1-36.68,6-69.54-3.35-98-27.32-14.43-12.15-22.14-13.11-38.39-3.82C210.14,391.61,209.07,392.18,207.62,393Z" transform="translate(-38.25 -42.73)"/><path class="cls-2" d="M177.67,366.44c1,.92,2.39,1.65,3.06,2.79,5.71,9.71,11.36,19.45,16.81,29.3a5.48,5.48,0,0,1-.24,4.47,53.61,53.61,0,0,1-22.39,22.45c-29.18,16.11-57.84,33.14-86.7,49.82-10.75,6.21-17.1,4.51-23.3-6.24-4.25-7.35-8.55-14.67-12.72-22.06-4.69-8.31-2.74-15.74,5.43-20.47q48.48-28.06,97.07-55.94a27.15,27.15,0,0,1,10.05-2.86c4.11-.48,8.32-.11,12.49-.11Zm.46,40.08c5.74.2,8.52-4.1,6.32-8.25-3.1-5.83-6.55-11.47-9.87-17.18-1.82-3.13-4.54-4.34-7.76-2.59-3.48,1.88-3.78,5-1.93,8.3,3.08,5.49,6.16,11,9.51,16.32C175.43,404.76,177.36,405.84,178.13,406.52Z" transform="translate(-38.25 -42.73)"/><path d="M178.13,406.52c-.77-.68-2.7-1.76-3.73-3.4-3.35-5.33-6.43-10.83-9.51-16.32-1.85-3.28-1.55-6.42,1.93-8.3,3.22-1.75,5.94-.54,7.76,2.59,3.32,5.71,6.77,11.35,9.87,17.18C186.65,402.42,183.87,406.72,178.13,406.52Z" transform="translate(-38.25 -42.73)"/><rect class="cls-3" x="262.75" y="276.27" width="21" height="21" rx="10.5"/><rect class="cls-3" x="301.75" y="276.27" width="21" height="21" rx="10.5"/></g><g id="图层_2" data-name="图层 2"><path d="M309.38,345c-.41-.1-.81-.22-1.23-.3a15,15,0,0,1-12-13.81c0-.59-.07-1.18-.11-1.85-.61,0-1.2,0-1.79,0a2.44,2.44,0,0,1,0-4.87,16,16,0,0,1,2.19,0,1.08,1.08,0,0,0,1.22-.76,14.64,14.64,0,0,1,8.6-7.71,15,15,0,0,1,18.55,7.76l.38.78a12.79,12.79,0,0,1,11.39-.15c1.24-1.66,2.3-3.34,3.62-4.78,4.27-4.69,12.13-5.81,17.65-2.69a15.32,15.32,0,0,1,6.55,6.89.94.94,0,0,0,1,.65,21.67,21.67,0,0,1,2.28,0,2.49,2.49,0,0,1,2.38,2.42,2.46,2.46,0,0,1-2.42,2.45c-.56,0-1.13,0-1.68,0-.14,1.28-.19,2.49-.41,3.68a15,15,0,0,1-12.69,12.13,1.84,1.84,0,0,0-.36.15h-3.42a2.49,2.49,0,0,0-.53-.16,14.06,14.06,0,0,1-6.55-2.67,14.67,14.67,0,0,1-6.27-12.07,1.23,1.23,0,0,0-.71-1.22,7.76,7.76,0,0,0-8.11.06,1.24,1.24,0,0,0-.68,1.15c-.34,7.48-5.1,13.17-12.22,14.65-.36.07-.71.17-1.07.26Zm11.94-15.1a10.14,10.14,0,1,0-10.08,10.21A10.17,10.17,0,0,0,321.32,329.9Zm39.61-.4a10.16,10.16,0,1,0-20.27,1.24,10.16,10.16,0,0,0,20.27-1.24Z" transform="translate(-38.25 -42.73)"/><path d="M331.44,313.63a92,92,0,0,1-26.69-3.84,36,36,0,0,1-11.44-5.58,20.79,20.79,0,0,1-3.73-3.65c-3.28-4.27-2.84-9.63.91-13.58a26.88,26.88,0,0,1,10.23-6.53,1.69,1.69,0,0,0,1.21-1.67,47.78,47.78,0,0,1,3.71-15.2,14.36,14.36,0,0,1,5.17-6.34c3.48-2.24,7.21-2.15,10.84-.65a64.84,64.84,0,0,1,8.22,4.29,2.64,2.64,0,0,0,3.1,0,66.24,66.24,0,0,1,8.14-4.24c4.05-1.66,8.11-1.6,11.75,1.25a16.25,16.25,0,0,1,4.89,7,51.62,51.62,0,0,1,3.15,14,1.57,1.57,0,0,0,1.15,1.52,27,27,0,0,1,10,6.31c4.62,4.77,4.37,11.34-.56,15.81-4.2,3.82-9.24,6-14.56,7.57a75.62,75.62,0,0,1-16.34,3C337.57,313.33,334.5,313.46,331.44,313.63Zm-.07-5.84c1.87,0,3.75.06,5.62,0A75.17,75.17,0,0,0,354.67,305c4.35-1.25,8.57-2.81,12.14-5.72a12,12,0,0,0,2.22-2.44c1.32-1.92,1-4-.77-6-2.23-2.49-5.16-3.9-8.16-5.2a2.87,2.87,0,0,0-2.73.07,55.57,55.57,0,0,1-18.76,5.27,64.62,64.62,0,0,1-15.35-.13,49.71,49.71,0,0,1-16.15-4.42,6.41,6.41,0,0,0-6.62.17c-2.38,1.3-4.74,2.61-6.42,4.83a4.37,4.37,0,0,0-.28,5.46,12.56,12.56,0,0,0,2.23,2.43,30.18,30.18,0,0,0,10.39,5.18A78.07,78.07,0,0,0,331.37,307.79Zm0-21.94c2.44-.19,4.9-.31,7.34-.58a50.4,50.4,0,0,0,16-4.46c.58-.27.78-.57.66-1.18-.69-3.55-1.19-7.14-2.11-10.62a19.5,19.5,0,0,0-2.63-5.41,4.92,4.92,0,0,0-5.56-2.32,20.53,20.53,0,0,0-4.48,1.57c-2.22,1.12-4.31,2.47-6.46,3.71a5.17,5.17,0,0,1-5.51,0c-1.35-.79-2.66-1.65-4-2.37a44.74,44.74,0,0,0-5.37-2.57c-3-1.08-5.34-.43-7,1.82a17.14,17.14,0,0,0-2,3.59c-1.68,4-2.28,8.3-2.81,12.6-.09.7.18.95.75,1.22A56.91,56.91,0,0,0,331.37,285.85Z" transform="translate(-38.25 -42.73)"/><path class="cls-4" d="M331.37,307.79a78.07,78.07,0,0,1-25-3.33A30.18,30.18,0,0,1,296,299.28a12.56,12.56,0,0,1-2.23-2.43,4.37,4.37,0,0,1,.28-5.46c1.68-2.22,4-3.53,6.42-4.83a6.41,6.41,0,0,1,6.62-.17,49.71,49.71,0,0,0,16.15,4.42,64.62,64.62,0,0,0,15.35.13,55.57,55.57,0,0,0,18.76-5.27,2.87,2.87,0,0,1,2.73-.07c3,1.3,5.93,2.71,8.16,5.2,1.79,2,2.09,4.11.77,6a12,12,0,0,1-2.22,2.44c-3.57,2.91-7.79,4.47-12.14,5.72A75.17,75.17,0,0,1,337,307.77C335.12,307.85,333.24,307.79,331.37,307.79Z" transform="translate(-38.25 -42.73)"/><path class="cls-4" d="M331.37,285.85a56.91,56.91,0,0,1-23.21-5c-.57-.27-.84-.52-.75-1.22.53-4.3,1.13-8.58,2.81-12.6a17.14,17.14,0,0,1,2-3.59c1.66-2.25,4-2.9,7-1.82a44.74,44.74,0,0,1,5.37,2.57c1.38.72,2.69,1.58,4,2.37a5.17,5.17,0,0,0,5.51,0c2.15-1.24,4.24-2.59,6.46-3.71a20.53,20.53,0,0,1,4.48-1.57,4.92,4.92,0,0,1,5.56,2.32,19.5,19.5,0,0,1,2.63,5.41c.92,3.48,1.42,7.07,2.11,10.62.12.61-.08.91-.66,1.18a50.4,50.4,0,0,1-16,4.46C336.27,285.54,333.81,285.66,331.37,285.85Z" transform="translate(-38.25 -42.73)"/><rect class="cls-5" x="162.57" y="89.48" width="33.39" height="107.33" rx="16.7" transform="translate(57.34 -113.18) rotate(30)"/><rect class="cls-6" x="144.16" y="159.68" width="33.25" height="32.82" rx="16.41" transform="translate(99.07 -103.93) rotate(36.75)"/><rect class="cls-7" x="213.07" y="125.44" width="31.2" height="66.56" rx="15.6" transform="matrix(0.87, 0.5, -0.5, 0.87, 71.74, -135.8)"/></g></svg>